<?xml version="1.0" encoding="iso-8859-1"?>
<!-- Uploaded to: SVG Repo, www.svgrepo.com, Generator: SVG Repo Mixer Tools -->
<svg fill="#000000" height="800px" width="800px" version="1.1" id="Layer_1" xmlns="http://www.w3.org/2000/svg" xmlns:xlink="http://www.w3.org/1999/xlink" 
	 viewBox="0 0 330 330" xml:space="preserve">
<g id="XMLID_105_">
	<path id="XMLID_106_" d="M270.102,0H59.898c-8.284,0-15,6.716-15,15v90v210c0,8.284,6.716,15,15,15h210.203c8.285,0,15-6.716,15-15
		V105V15C285.102,6.716,278.387,0,270.102,0z M114.898,300h-40v-40h40V300z M114.898,230h-40v-40.001h40V230z M114.898,159.999h-40
		V120h40V159.999z M184.898,300h-40v-40h40V300z M184.898,230h-40v-40.001h40V230z M184.898,159.999h-40V120h40V159.999z
		 M255.102,300h-40.203v-40h40.203V300z M255.102,230h-40.203v-40.001h40.203V230z M255.102,159.999h-40.203V120h40.203V159.999z
		 M255.102,90H74.898V30h180.203V90z"/>
</g>
</svg>